<?xml version="1.0" standalone="no"?><!DOCTYPE svg PUBLIC "-//W3C//DTD SVG 1.1//EN" "http://www.w3.org/Graphics/SVG/1.1/DTD/svg11.dtd"><svg t="1595236576074" class="icon" viewBox="0 0 1024 1024" version="1.1" xmlns="http://www.w3.org/2000/svg" p-id="793" xmlns:xlink="http://www.w3.org/1999/xlink" width="200" height="200"><defs><style type="text/css"></style></defs><path d="M429.87 630.72v235c0 33.44-27.35 60.77-60.79 60.77H196.63c-33.43 0-60.79-27.34-60.79-60.77V158.74c-0.01-33.44 27.35-60.8 60.79-60.8h172.46c33.43 0 60.79 27.36 60.79 60.8v236.47H250.33v235.51h179.54zM788.2 97.94h42.41c34.98 0 63.62 28.61 63.62 63.63v701.3c0 35.01-28.64 63.63-63.62 63.63H788.2c-34.99 0-63.61-28.61-63.61-63.63v-701.3c0.01-35.01 28.63-63.63 63.61-63.63z" p-id="794" fill="#13227a"></path><path d="M492.76 569.23v107.22l109.19-81.74 109.2-81.74-218.39-163.48V458.5l-180.92-0.91v110.73z" p-id="795" fill="#13227a"></path></svg>